TITLE ""
FILE "DISC1Track29.mp3" MP3
  TRACK 01 AUDIO
    TITLE "DISC1Track29_01"
    INDEX 01 00:00:00
  TRACK 02 AUDIO
    TITLE "DISC1Track29_02"
    INDEX 01 00:01:33
  TRACK 03 AUDIO
    TITLE "DISC1Track29_03"
    INDEX 01 00:01:49
  TRACK 04 AUDIO
    TITLE "DISC1Track29_04"
    INDEX 01 00:04:55
  TRACK 05 AUDIO
    TITLE "DISC1Track29_05"
    INDEX 01 00:07:51
  TRACK 06 AUDIO
    TITLE "DISC1Track29_06"
    INDEX 01 00:10:24
  TRACK 07 AUDIO
    TITLE "DISC1Track29_07"
    INDEX 01 00:10:32
  TRACK 08 AUDIO
    TITLE "DISC1Track29_08"
    INDEX 01 00:14:28
  TRACK 09 AUDIO
    TITLE "DISC1Track29_09"
    INDEX 01 00:17:48
  TRACK 10 AUDIO
    TITLE "DISC1Track29_10"
    INDEX 01 00:20:42
  TRACK 11 AUDIO
    TITLE "DISC1Track29_11"
    INDEX 01 00:20:50
  TRACK 12 AUDIO
    TITLE "DISC1Track29_12"
    INDEX 01 00:24:19
  TRACK 13 AUDIO
    TITLE "DISC1Track29_13"
    INDEX 01 00:27:29
  TRACK 14 AUDIO
    TITLE "DISC1Track29_14"
    INDEX 01 00:30:13
  TRACK 15 AUDIO
    TITLE "DISC1Track29_15"
    INDEX 01 00:30:27
  TRACK 16 AUDIO
    TITLE "DISC1Track29_16"
    INDEX 01 00:33:22
  TRACK 17 AUDIO
    TITLE "DISC1Track29_17"
    INDEX 01 00:36:12
  TRACK 18 AUDIO
    TITLE "DISC1Track29_18"
    INDEX 01 00:38:48
  TRACK 19 AUDIO
    TITLE "DISC1Track29_19"
    INDEX 01 00:38:60
  TRACK 20 AUDIO
    TITLE "DISC1Track29_20"
    INDEX 01 00:41:46
  TRACK 21 AUDIO
    TITLE "DISC1Track29_21"
    INDEX 01 00:44:66
  TRACK 22 AUDIO
    TITLE "DISC1Track29_22"
    INDEX 01 00:47:61
  TRACK 23 AUDIO
    TITLE "DISC1Track29_23"
    INDEX 01 00:48:01
  TRACK 24 AUDIO
    TITLE "DISC1Track29_24"
    INDEX 01 00:52:17
  TRACK 25 AUDIO
    TITLE "DISC1Track29_25"
    INDEX 01 00:55:15
  TRACK 26 AUDIO
    TITLE "DISC1Track29_26"
    INDEX 01 00:57:63
  TRACK 27 AUDIO
    TITLE "DISC1Track29_27"
    INDEX 01 00:58:06
  TRACK 28 AUDIO
    TITLE "DISC1Track29_28"
    INDEX 01 01:01:61
  TRACK 29 AUDIO
    TITLE "DISC1Track29_29"
    INDEX 01 01:05:43
  TRACK 30 AUDIO
    TITLE "DISC1Track29_30"
    INDEX 01 01:08:63
  TRACK 31 AUDIO
    TITLE "DISC1Track29_31"
    INDEX 01 01:09:06
  TRACK 32 AUDIO
    TITLE "DISC1Track29_32"
    INDEX 01 01:12:04
  TRACK 33 AUDIO
    TITLE "DISC1Track29_33"
    INDEX 01 01:14:48
  TRACK 34 AUDIO
    TITLE "DISC1Track29_34"
    INDEX 01 01:16:60
  TRACK 35 AUDIO
    TITLE "DISC1Track29_35"
    INDEX 01 01:16:62
  TRACK 36 AUDIO
    TITLE "DISC1Track29_36"
    INDEX 01 01:19:71
  TRACK 37 AUDIO
    TITLE "DISC1Track29_37"
    INDEX 01 01:22:65
  TRACK 38 AUDIO
    TITLE "DISC1Track29_38"
    INDEX 01 01:25:24
  TRACK 39 AUDIO
    TITLE "DISC1Track29_39"
    INDEX 01 01:25:34
  TRACK 40 AUDIO
    TITLE "DISC1Track29_40"
    INDEX 01 01:29:12
  TRACK 41 AUDIO
    TITLE "DISC1Track29_41"
    INDEX 01 01:32:61
  TRACK 42 AUDIO
    TITLE "DISC1Track29_42"
    INDEX 01 01:36:06
